<mxfile host="app.diagrams.net" agent="Mozilla/5.0 (Windows NT 10.0; Win64; x64) AppleWebKit/537.36 (KHTML, like Gecko) Chrome/128.0.0.0 Safari/537.36" version="24.7.7">
  <diagram name="Page-1" id="edf60f1a-56cd-e834-aa8a-f176f3a09ee4">
    <mxGraphModel dx="2534" dy="780" grid="1" gridSize="10" guides="1" tooltips="1" connect="1" arrows="1" fold="1" page="1" pageScale="1" pageWidth="1100" pageHeight="850" background="none" math="0" shadow="0">
      <root>
        <mxCell id="0" />
        <mxCell id="1" parent="0" />
        <mxCell id="RJY-61TXQcyp5P4VzgpR-52" style="edgeStyle=orthogonalEdgeStyle;rounded=0;orthogonalLoop=1;jettySize=auto;html=1;exitX=1;exitY=0.5;exitDx=0;exitDy=0;entryX=0;entryY=0.5;entryDx=0;entryDy=0;" edge="1" parent="1" source="RJY-61TXQcyp5P4VzgpR-1" target="RJY-61TXQcyp5P4VzgpR-51">
          <mxGeometry relative="1" as="geometry" />
        </mxCell>
        <mxCell id="RJY-61TXQcyp5P4VzgpR-1" value="Inicio" style="rounded=1;whiteSpace=wrap;html=1;" vertex="1" parent="1">
          <mxGeometry x="-110" y="80" width="120" height="60" as="geometry" />
        </mxCell>
        <mxCell id="RJY-61TXQcyp5P4VzgpR-25" style="edgeStyle=orthogonalEdgeStyle;rounded=0;orthogonalLoop=1;jettySize=auto;html=1;exitX=0.5;exitY=1;exitDx=0;exitDy=0;entryX=0.5;entryY=0;entryDx=0;entryDy=0;" edge="1" parent="1" source="RJY-61TXQcyp5P4VzgpR-2" target="RJY-61TXQcyp5P4VzgpR-17">
          <mxGeometry relative="1" as="geometry" />
        </mxCell>
        <mxCell id="RJY-61TXQcyp5P4VzgpR-58" style="edgeStyle=orthogonalEdgeStyle;rounded=0;orthogonalLoop=1;jettySize=auto;html=1;exitX=1;exitY=0.5;exitDx=0;exitDy=0;entryX=0;entryY=0.5;entryDx=0;entryDy=0;" edge="1" parent="1" source="RJY-61TXQcyp5P4VzgpR-2" target="RJY-61TXQcyp5P4VzgpR-57">
          <mxGeometry relative="1" as="geometry" />
        </mxCell>
        <mxCell id="RJY-61TXQcyp5P4VzgpR-2" value="Es de la familia?" style="rhombus;whiteSpace=wrap;html=1;rounded=1;" vertex="1" parent="1">
          <mxGeometry x="230" y="70" width="80" height="80" as="geometry" />
        </mxCell>
        <mxCell id="RJY-61TXQcyp5P4VzgpR-13" value="" style="edgeStyle=orthogonalEdgeStyle;rounded=0;orthogonalLoop=1;jettySize=auto;html=1;" edge="1" parent="1" source="RJY-61TXQcyp5P4VzgpR-5" target="RJY-61TXQcyp5P4VzgpR-18">
          <mxGeometry relative="1" as="geometry">
            <mxPoint x="530" y="240" as="targetPoint" />
          </mxGeometry>
        </mxCell>
        <mxCell id="RJY-61TXQcyp5P4VzgpR-34" style="edgeStyle=orthogonalEdgeStyle;rounded=0;orthogonalLoop=1;jettySize=auto;html=1;exitX=1;exitY=0.5;exitDx=0;exitDy=0;entryX=0;entryY=0.5;entryDx=0;entryDy=0;" edge="1" parent="1" source="RJY-61TXQcyp5P4VzgpR-5" target="RJY-61TXQcyp5P4VzgpR-19">
          <mxGeometry relative="1" as="geometry" />
        </mxCell>
        <mxCell id="RJY-61TXQcyp5P4VzgpR-5" value="Es hombre?" style="rhombus;whiteSpace=wrap;html=1;rounded=1;" vertex="1" parent="1">
          <mxGeometry x="530" y="70" width="80" height="80" as="geometry" />
        </mxCell>
        <mxCell id="RJY-61TXQcyp5P4VzgpR-7" value="Si" style="text;html=1;align=center;verticalAlign=middle;resizable=0;points=[];autosize=1;strokeColor=none;fillColor=none;" vertex="1" parent="1">
          <mxGeometry x="320" y="80" width="30" height="30" as="geometry" />
        </mxCell>
        <mxCell id="RJY-61TXQcyp5P4VzgpR-24" style="edgeStyle=orthogonalEdgeStyle;rounded=0;orthogonalLoop=1;jettySize=auto;html=1;exitX=0.5;exitY=1;exitDx=0;exitDy=0;entryX=0.5;entryY=0;entryDx=0;entryDy=0;" edge="1" parent="1" source="RJY-61TXQcyp5P4VzgpR-10" target="RJY-61TXQcyp5P4VzgpR-21">
          <mxGeometry relative="1" as="geometry" />
        </mxCell>
        <mxCell id="RJY-61TXQcyp5P4VzgpR-10" value="Ingresa la edad del varon" style="shape=parallelogram;perimeter=parallelogramPerimeter;whiteSpace=wrap;html=1;fixedSize=1;rounded=1;" vertex="1" parent="1">
          <mxGeometry x="870" y="70" width="130" height="80" as="geometry" />
        </mxCell>
        <mxCell id="RJY-61TXQcyp5P4VzgpR-14" value="No" style="text;html=1;align=center;verticalAlign=middle;resizable=0;points=[];autosize=1;strokeColor=none;fillColor=none;" vertex="1" parent="1">
          <mxGeometry x="520" y="150" width="40" height="30" as="geometry" />
        </mxCell>
        <mxCell id="RJY-61TXQcyp5P4VzgpR-17" value="Fin" style="rounded=1;whiteSpace=wrap;html=1;" vertex="1" parent="1">
          <mxGeometry x="120" y="410" width="120" height="60" as="geometry" />
        </mxCell>
        <mxCell id="RJY-61TXQcyp5P4VzgpR-27" style="edgeStyle=orthogonalEdgeStyle;rounded=0;orthogonalLoop=1;jettySize=auto;html=1;exitX=1;exitY=0.5;exitDx=0;exitDy=0;entryX=0;entryY=0.5;entryDx=0;entryDy=0;" edge="1" parent="1" source="RJY-61TXQcyp5P4VzgpR-18" target="RJY-61TXQcyp5P4VzgpR-26">
          <mxGeometry relative="1" as="geometry" />
        </mxCell>
        <mxCell id="RJY-61TXQcyp5P4VzgpR-18" value="No le gusta el futbol" style="rounded=0;whiteSpace=wrap;html=1;" vertex="1" parent="1">
          <mxGeometry x="510" y="210" width="120" height="60" as="geometry" />
        </mxCell>
        <mxCell id="RJY-61TXQcyp5P4VzgpR-23" style="edgeStyle=orthogonalEdgeStyle;rounded=0;orthogonalLoop=1;jettySize=auto;html=1;exitX=1;exitY=0.5;exitDx=0;exitDy=0;" edge="1" parent="1" source="RJY-61TXQcyp5P4VzgpR-19" target="RJY-61TXQcyp5P4VzgpR-10">
          <mxGeometry relative="1" as="geometry" />
        </mxCell>
        <mxCell id="RJY-61TXQcyp5P4VzgpR-19" value="Le gusta el fubol" style="rounded=0;whiteSpace=wrap;html=1;" vertex="1" parent="1">
          <mxGeometry x="690" y="80" width="120" height="60" as="geometry" />
        </mxCell>
        <mxCell id="RJY-61TXQcyp5P4VzgpR-55" style="edgeStyle=orthogonalEdgeStyle;rounded=0;orthogonalLoop=1;jettySize=auto;html=1;exitX=0.5;exitY=1;exitDx=0;exitDy=0;entryX=0.5;entryY=0;entryDx=0;entryDy=0;" edge="1" parent="1" source="RJY-61TXQcyp5P4VzgpR-21" target="RJY-61TXQcyp5P4VzgpR-38">
          <mxGeometry relative="1" as="geometry">
            <Array as="points">
              <mxPoint x="895" y="380" />
              <mxPoint x="760" y="380" />
            </Array>
          </mxGeometry>
        </mxCell>
        <mxCell id="RJY-61TXQcyp5P4VzgpR-21" value="Sumar con las edades de los otros varones" style="rounded=0;whiteSpace=wrap;html=1;" vertex="1" parent="1">
          <mxGeometry x="875" y="190" width="120" height="60" as="geometry" />
        </mxCell>
        <mxCell id="RJY-61TXQcyp5P4VzgpR-29" style="edgeStyle=orthogonalEdgeStyle;rounded=0;orthogonalLoop=1;jettySize=auto;html=1;exitX=0.5;exitY=1;exitDx=0;exitDy=0;entryX=0.5;entryY=0;entryDx=0;entryDy=0;" edge="1" parent="1" source="RJY-61TXQcyp5P4VzgpR-26" target="RJY-61TXQcyp5P4VzgpR-28">
          <mxGeometry relative="1" as="geometry" />
        </mxCell>
        <mxCell id="RJY-61TXQcyp5P4VzgpR-26" value="Ingresa la edad de la mujer" style="shape=parallelogram;perimeter=parallelogramPerimeter;whiteSpace=wrap;html=1;fixedSize=1;" vertex="1" parent="1">
          <mxGeometry x="710" y="210" width="120" height="60" as="geometry" />
        </mxCell>
        <mxCell id="RJY-61TXQcyp5P4VzgpR-61" style="edgeStyle=orthogonalEdgeStyle;rounded=0;orthogonalLoop=1;jettySize=auto;html=1;exitX=0.5;exitY=1;exitDx=0;exitDy=0;entryX=0.5;entryY=0;entryDx=0;entryDy=0;" edge="1" parent="1" source="RJY-61TXQcyp5P4VzgpR-28" target="RJY-61TXQcyp5P4VzgpR-38">
          <mxGeometry relative="1" as="geometry" />
        </mxCell>
        <mxCell id="RJY-61TXQcyp5P4VzgpR-28" value="Sumar con las edades de las otras mujeres" style="rounded=0;whiteSpace=wrap;html=1;" vertex="1" parent="1">
          <mxGeometry x="700" y="300" width="120" height="60" as="geometry" />
        </mxCell>
        <mxCell id="RJY-61TXQcyp5P4VzgpR-31" value="No" style="text;html=1;align=center;verticalAlign=middle;resizable=0;points=[];autosize=1;strokeColor=none;fillColor=none;" vertex="1" parent="1">
          <mxGeometry x="230" y="190" width="40" height="30" as="geometry" />
        </mxCell>
        <mxCell id="RJY-61TXQcyp5P4VzgpR-35" value="Si" style="text;html=1;align=center;verticalAlign=middle;resizable=0;points=[];autosize=1;strokeColor=none;fillColor=none;" vertex="1" parent="1">
          <mxGeometry x="620" y="80" width="30" height="30" as="geometry" />
        </mxCell>
        <mxCell id="RJY-61TXQcyp5P4VzgpR-43" style="edgeStyle=orthogonalEdgeStyle;rounded=0;orthogonalLoop=1;jettySize=auto;html=1;exitX=0;exitY=0.5;exitDx=0;exitDy=0;" edge="1" parent="1" source="RJY-61TXQcyp5P4VzgpR-38" target="RJY-61TXQcyp5P4VzgpR-47">
          <mxGeometry relative="1" as="geometry">
            <mxPoint x="540" y="440" as="targetPoint" />
          </mxGeometry>
        </mxCell>
        <mxCell id="RJY-61TXQcyp5P4VzgpR-54" style="edgeStyle=orthogonalEdgeStyle;rounded=0;orthogonalLoop=1;jettySize=auto;html=1;exitX=1;exitY=0.5;exitDx=0;exitDy=0;entryX=0.5;entryY=0;entryDx=0;entryDy=0;" edge="1" parent="1" source="RJY-61TXQcyp5P4VzgpR-38" target="RJY-61TXQcyp5P4VzgpR-2">
          <mxGeometry relative="1" as="geometry">
            <Array as="points">
              <mxPoint x="1010" y="440" />
              <mxPoint x="1010" y="50" />
              <mxPoint x="270" y="50" />
            </Array>
          </mxGeometry>
        </mxCell>
        <mxCell id="RJY-61TXQcyp5P4VzgpR-38" value="Hay mas personas?" style="rhombus;whiteSpace=wrap;html=1;" vertex="1" parent="1">
          <mxGeometry x="720" y="400" width="80" height="80" as="geometry" />
        </mxCell>
        <mxCell id="RJY-61TXQcyp5P4VzgpR-44" value="No" style="text;html=1;align=center;verticalAlign=middle;resizable=0;points=[];autosize=1;strokeColor=none;fillColor=none;" vertex="1" parent="1">
          <mxGeometry x="570" y="410" width="40" height="30" as="geometry" />
        </mxCell>
        <mxCell id="RJY-61TXQcyp5P4VzgpR-46" value="Si" style="text;html=1;align=center;verticalAlign=middle;resizable=0;points=[];autosize=1;strokeColor=none;fillColor=none;" vertex="1" parent="1">
          <mxGeometry x="860" y="410" width="30" height="30" as="geometry" />
        </mxCell>
        <mxCell id="RJY-61TXQcyp5P4VzgpR-49" style="edgeStyle=orthogonalEdgeStyle;rounded=0;orthogonalLoop=1;jettySize=auto;html=1;exitX=0;exitY=0.5;exitDx=0;exitDy=0;entryX=1;entryY=0.5;entryDx=0;entryDy=0;" edge="1" parent="1" source="RJY-61TXQcyp5P4VzgpR-47" target="RJY-61TXQcyp5P4VzgpR-48">
          <mxGeometry relative="1" as="geometry" />
        </mxCell>
        <mxCell id="RJY-61TXQcyp5P4VzgpR-47" value="Sumar edades varones" style="rounded=0;whiteSpace=wrap;html=1;" vertex="1" parent="1">
          <mxGeometry x="440" y="410" width="120" height="60" as="geometry" />
        </mxCell>
        <mxCell id="RJY-61TXQcyp5P4VzgpR-50" style="edgeStyle=orthogonalEdgeStyle;rounded=0;orthogonalLoop=1;jettySize=auto;html=1;exitX=0;exitY=0.5;exitDx=0;exitDy=0;entryX=1;entryY=0.5;entryDx=0;entryDy=0;" edge="1" parent="1" source="RJY-61TXQcyp5P4VzgpR-48" target="RJY-61TXQcyp5P4VzgpR-17">
          <mxGeometry relative="1" as="geometry" />
        </mxCell>
        <mxCell id="RJY-61TXQcyp5P4VzgpR-48" value="Sumar edades mujeres" style="rounded=0;whiteSpace=wrap;html=1;" vertex="1" parent="1">
          <mxGeometry x="290" y="410" width="120" height="60" as="geometry" />
        </mxCell>
        <mxCell id="RJY-61TXQcyp5P4VzgpR-56" style="edgeStyle=orthogonalEdgeStyle;rounded=0;orthogonalLoop=1;jettySize=auto;html=1;exitX=1;exitY=0.5;exitDx=0;exitDy=0;entryX=0;entryY=0.5;entryDx=0;entryDy=0;" edge="1" parent="1" source="RJY-61TXQcyp5P4VzgpR-51" target="RJY-61TXQcyp5P4VzgpR-2">
          <mxGeometry relative="1" as="geometry" />
        </mxCell>
        <mxCell id="RJY-61TXQcyp5P4VzgpR-51" value="Ingresa una&amp;nbsp;&lt;div&gt;persona&lt;/div&gt;" style="shape=parallelogram;perimeter=parallelogramPerimeter;whiteSpace=wrap;html=1;fixedSize=1;" vertex="1" parent="1">
          <mxGeometry x="60" y="80" width="120" height="60" as="geometry" />
        </mxCell>
        <mxCell id="RJY-61TXQcyp5P4VzgpR-59" style="edgeStyle=orthogonalEdgeStyle;rounded=0;orthogonalLoop=1;jettySize=auto;html=1;exitX=1;exitY=0.5;exitDx=0;exitDy=0;entryX=0;entryY=0.5;entryDx=0;entryDy=0;" edge="1" parent="1" source="RJY-61TXQcyp5P4VzgpR-57" target="RJY-61TXQcyp5P4VzgpR-5">
          <mxGeometry relative="1" as="geometry" />
        </mxCell>
        <mxCell id="RJY-61TXQcyp5P4VzgpR-62" style="edgeStyle=orthogonalEdgeStyle;rounded=0;orthogonalLoop=1;jettySize=auto;html=1;exitX=0.5;exitY=1;exitDx=0;exitDy=0;entryX=0.5;entryY=0;entryDx=0;entryDy=0;" edge="1" parent="1" source="RJY-61TXQcyp5P4VzgpR-57" target="RJY-61TXQcyp5P4VzgpR-17">
          <mxGeometry relative="1" as="geometry">
            <mxPoint x="180" y="400" as="targetPoint" />
            <Array as="points">
              <mxPoint x="410" y="280" />
              <mxPoint x="181" y="280" />
            </Array>
          </mxGeometry>
        </mxCell>
        <mxCell id="RJY-61TXQcyp5P4VzgpR-57" value="Es un hijo o hija?" style="rhombus;whiteSpace=wrap;html=1;" vertex="1" parent="1">
          <mxGeometry x="360" y="65" width="100" height="90" as="geometry" />
        </mxCell>
        <mxCell id="RJY-61TXQcyp5P4VzgpR-60" value="Si" style="text;html=1;align=center;verticalAlign=middle;resizable=0;points=[];autosize=1;strokeColor=none;fillColor=none;" vertex="1" parent="1">
          <mxGeometry x="455" y="68" width="30" height="30" as="geometry" />
        </mxCell>
        <mxCell id="RJY-61TXQcyp5P4VzgpR-63" value="No" style="text;html=1;align=center;verticalAlign=middle;resizable=0;points=[];autosize=1;strokeColor=none;fillColor=none;" vertex="1" parent="1">
          <mxGeometry x="370" y="190" width="40" height="30" as="geometry" />
        </mxCell>
      </root>
    </mxGraphModel>
  </diagram>
</mxfile>
